<svg width="48" height="48" viewBox="0 0 48 48" fill="none" xmlns="http://www.w3.org/2000/svg">
<path d="M46.4235 11.4788L36.7185 6.1875C36.4986 6.06583 36.2517 6.00136 36.0004 6H30.0004C29.6025 6 29.221 6.15804 28.9397 6.43934C28.6584 6.72064 28.5004 7.10218 28.5004 7.5C28.5004 8.69347 28.0263 9.83807 27.1823 10.682C26.3384 11.5259 25.1938 12 24.0004 12C22.8069 12 21.6623 11.5259 20.8184 10.682C19.9745 9.83807 19.5004 8.69347 19.5004 7.5C19.5004 7.10218 19.3423 6.72064 19.061 6.43934C18.7797 6.15804 18.3982 6 18.0004 6H12.0004C11.7484 6.00104 11.5008 6.06553 11.2804 6.1875L1.57724 11.4788C0.885554 11.8443 0.36705 12.4692 0.135421 13.2165C-0.0962076 13.9637 -0.0220568 14.7723 0.341615 15.465L3.95474 22.3669C4.21745 22.8631 4.61125 23.2777 5.09326 23.5657C5.57527 23.8536 6.12703 24.0039 6.68849 24H10.5004V39C10.5004 39.7957 10.8164 40.5587 11.379 41.1213C11.9417 41.6839 12.7047 42 13.5004 42H34.5004C35.296 42 36.0591 41.6839 36.6217 41.1213C37.1843 40.5587 37.5004 39.7957 37.5004 39V24H41.3141C41.8756 24.0039 42.4273 23.8536 42.9093 23.5657C43.3914 23.2777 43.7851 22.8631 44.0479 22.3669L47.661 15.465C48.0245 14.7721 48.0984 13.9633 47.8664 13.216C47.6344 12.4687 47.1155 11.844 46.4235 11.4788ZM6.68849 21C6.66078 21.0013 6.63351 20.9927 6.61161 20.9756L3.01724 14.1112L10.5004 10.0275V21H6.68849ZM41.3891 20.9738C41.3787 20.9831 41.3666 20.9903 41.3534 20.9948C41.3402 20.9993 41.3262 21.0011 41.3122 21H37.5004V10.0275L44.9854 14.1112L41.3891 20.9738Z" fill="#007042"/>
</svg>
