<svg width="48" height="48" viewBox="0 0 48 48" fill="none" xmlns="http://www.w3.org/2000/svg">
<path d="M42.6225 13.7569L34.2431 5.37941C33.9646 5.10076 33.6338 4.87972 33.2698 4.72892C32.9058 4.57811 32.5156 4.50049 32.1216 4.50049C31.7276 4.50049 31.3374 4.57811 30.9734 4.72892C30.6093 4.87972 30.2786 5.10076 30 5.37941L6.87939 28.5C6.5996 28.7776 6.37778 29.108 6.22681 29.4721C6.07585 29.8361 5.99876 30.2266 6.00002 30.6207V39C6.00002 39.7957 6.31609 40.5587 6.87869 41.1214C7.4413 41.684 8.20437 42 9.00001 42H17.3794C17.7735 42.0013 18.1639 41.9242 18.528 41.7732C18.892 41.6223 19.2224 41.4004 19.5 41.1207L35.1881 25.4344L35.8406 28.0407L28.9406 34.9388C28.6592 35.22 28.501 35.6015 28.5008 35.9994C28.5006 36.3972 28.6585 36.7789 28.9397 37.0603C29.2209 37.3418 29.6024 37.5 30.0003 37.5002C30.3982 37.5004 30.7798 37.3425 31.0613 37.0613L38.5613 29.5613C38.7447 29.3782 38.8776 29.1507 38.9469 28.9009C39.0162 28.6512 39.0197 28.3877 38.9569 28.1363L37.6631 22.9594L42.6225 18C42.9012 17.7214 43.1222 17.3907 43.273 17.0267C43.4238 16.6627 43.5014 16.2725 43.5014 15.8785C43.5014 15.4844 43.4238 15.0943 43.273 14.7303C43.1222 14.3662 42.9012 14.0355 42.6225 13.7569ZM36 20.3794L27.6225 12L32.1225 7.50004L40.5 15.8794L36 20.3794Z" fill="#007042"/>
</svg>
