<svg width="48" height="48" viewBox="0 0 48 48" fill="none" xmlns="http://www.w3.org/2000/svg">
<path d="M44.25 13.0125C43.9655 12.6932 43.6165 12.4378 43.2261 12.2633C42.8356 12.0888 42.4126 11.999 41.985 12H33C33 9.61305 32.0517 7.32387 30.3639 5.63604C28.6761 3.94821 26.3869 3 24 3C21.613 3 19.3238 3.94821 17.636 5.63604C15.9482 7.32387 15 9.61305 15 12H6.01496C5.58982 12.0011 5.1697 12.0919 4.78201 12.2664C4.39432 12.4408 4.04776 12.6951 3.76495 13.0125C3.48451 13.3287 3.27406 13.7007 3.14739 14.104C3.02073 14.5072 2.98071 14.9327 3.02995 15.3525L5.70371 37.8525C5.79043 38.5856 6.14439 39.261 6.69788 39.7494C7.25137 40.2379 7.96552 40.5051 8.7037 40.5H39.3131C40.0513 40.5051 40.7654 40.2379 41.3189 39.7494C41.8724 39.261 42.2264 38.5856 42.3131 37.8525L44.9868 15.3525C45.0358 14.9326 44.9955 14.507 44.8685 14.1037C44.7415 13.7005 44.5307 13.3286 44.25 13.0125ZM18 19.5C18 19.8978 17.8419 20.2794 17.5606 20.5607C17.2793 20.842 16.8978 21 16.5 21C16.1021 21 15.7206 20.842 15.4393 20.5607C15.158 20.2794 15 19.8978 15 19.5V16.5C15 16.1022 15.158 15.7206 15.4393 15.4393C15.7206 15.158 16.1021 15 16.5 15C16.8978 15 17.2793 15.158 17.5606 15.4393C17.8419 15.7206 18 16.1022 18 16.5V19.5ZM24 6C25.5913 6 27.1174 6.63214 28.2426 7.75736C29.3678 8.88258 30 10.4087 30 12H18C18 10.4087 18.6321 8.88258 19.7573 7.75736C20.8825 6.63214 22.4087 6 24 6ZM33 19.5C33 19.8978 32.8419 20.2794 32.5606 20.5607C32.2793 20.842 31.8978 21 31.5 21C31.1021 21 30.7206 20.842 30.4393 20.5607C30.158 20.2794 30 19.8978 30 19.5V16.5C30 16.1022 30.158 15.7206 30.4393 15.4393C30.7206 15.158 31.1021 15 31.5 15C31.8978 15 32.2793 15.158 32.5606 15.4393C32.8419 15.7206 33 16.1022 33 16.5V19.5Z" fill="#007042"/>
</svg>
