<svg width="30" height="48" viewBox="0 0 30 48" fill="none" xmlns="http://www.w3.org/2000/svg">
<path d="M11.25 0H18.75C19.9969 0 21 1.00312 21 2.25V6H9V2.25C9 1.00312 10.0031 0 11.25 0ZM3 15.7031C3 13.875 3.9375 12.1781 5.49375 11.2125L6.975 10.2844C8.31563 9.44062 9.8625 9 11.4469 9H18.5531C20.1375 9 21.6844 9.44062 23.025 10.2844L24.5062 11.2125C26.0625 12.1781 27 13.875 27 15.7031C27 17.2969 26.2969 18.7313 25.1813 19.6969C26.3063 20.7844 27 22.3125 27 24C27 25.7906 26.2125 27.4031 24.9656 28.5C26.2125 29.5969 27 31.2094 27 33C27 34.7906 26.2125 36.4031 24.9656 37.5C26.2125 38.5969 27 40.2094 27 42C27 45.3094 24.3094 48 21 48H9C5.69063 48 3 45.3094 3 42C3 40.2094 3.7875 38.5969 5.03438 37.5C3.7875 36.4031 3 34.7906 3 33C3 31.2094 3.7875 29.5969 5.03438 28.5C3.7875 27.4031 3 25.7906 3 24C3 22.3125 3.69375 20.7844 4.81875 19.6969C3.70313 18.7219 3 17.2969 3 15.7031ZM9 22.5C9 23.325 9.675 24 10.5 24H19.5C20.325 24 21 23.325 21 22.5C21 21.675 20.325 21 19.5 21H10.5C9.675 21 9 21.675 9 22.5ZM10.5 33C9.675 33 9 33.675 9 34.5C9 35.325 9.675 36 10.5 36H19.5C20.325 36 21 35.325 21 34.5C21 33.675 20.325 33 19.5 33H10.5Z" fill="#007042"/>
</svg>
