<svg width="48" height="48" viewBox="0 0 48 48" fill="none" xmlns="http://www.w3.org/2000/svg">
<path d="M24 4.5C18.8301 4.50595 13.8737 6.56233 10.218 10.218C6.56233 13.8737 4.50595 18.8301 4.5 24V34.5C4.5 35.6935 4.97411 36.8381 5.81802 37.682C6.66193 38.5259 7.80653 39 9 39C9.95594 38.9984 10.8868 38.6938 11.6588 38.13C13.9369 36.4744 17.925 34.5 24 34.5C30.075 34.5 34.0631 36.4725 36.3394 38.1281C37.0099 38.6197 37.8036 38.9159 38.6322 38.9839C39.4609 39.0518 40.2922 38.8889 41.0339 38.5131C41.7756 38.1373 42.3986 37.5634 42.8339 36.855C43.2693 36.1466 43.4998 35.3314 43.5 34.5V24C43.494 18.8301 41.4377 13.8737 37.782 10.218C34.1263 6.56233 29.1699 4.50595 24 4.5ZM7.5 24C7.50519 20.2176 8.80757 16.5514 11.1897 13.6133C13.5719 10.6753 16.8897 8.6432 20.5894 7.85625C17.6168 12.1292 15.7563 17.0759 15.1763 22.2488C12.4749 23.0353 9.89258 24.1845 7.5 25.665V24ZM40.5 34.5C40.5045 34.7762 40.4304 35.048 40.2864 35.2837C40.1423 35.5195 39.9342 35.7093 39.6862 35.8313C39.4368 35.9599 39.1562 36.016 38.8765 35.9931C38.5967 35.9702 38.329 35.8693 38.1038 35.7019C35.4675 33.7875 30.8813 31.5 24 31.5C17.1187 31.5 12.5325 33.7875 9.89625 35.7038C9.671 35.8712 9.40327 35.9721 9.12352 35.995C8.84377 36.0179 8.56321 35.9618 8.31375 35.8331C8.06556 35.7111 7.85723 35.5209 7.71313 35.2848C7.56903 35.0488 7.49511 34.7765 7.5 34.5V29.2631C10.3257 27.2449 13.4994 25.7652 16.8619 24.8981C16.9255 24.8865 16.9881 24.8702 17.0494 24.8494C21.6158 23.7168 26.3898 23.7168 30.9563 24.8494C31.0177 24.87 31.0803 24.8869 31.1438 24.9C34.5043 25.7666 37.6761 27.2458 40.5 29.2631V34.5ZM40.5 25.6631C38.1074 24.1827 35.5251 23.0334 32.8237 22.2469C32.2434 17.0747 30.3829 12.1287 27.4106 7.85625C31.1103 8.6432 34.4281 10.6753 36.8103 13.6133C39.1924 16.5514 40.4948 20.2176 40.5 24V25.6631Z" fill="#007042"/>
</svg>
