<svg width="20" height="20" viewBox="0 0 20 20" fill="none" xmlns="http://www.w3.org/2000/svg">
<path d="M17.5 16.875C17.5 17.0408 17.4341 17.1997 17.3169 17.3169C17.1997 17.4342 17.0407 17.5 16.875 17.5H5.62497C5.45921 17.5 5.30024 17.4342 5.18303 17.3169C5.06581 17.1997 4.99997 17.0408 4.99997 16.875C4.99997 16.7092 5.06581 16.5503 5.18303 16.4331C5.30024 16.3158 5.45921 16.25 5.62497 16.25H16.875C17.0407 16.25 17.1997 16.3158 17.3169 16.4331C17.4341 16.5503 17.5 16.7092 17.5 16.875ZM16.25 7.5H11.5093L7.94215 3.93281C7.88407 3.87479 7.81512 3.82878 7.73925 3.79741C7.66338 3.76605 7.58207 3.74994 7.49997 3.75H6.87497C6.67696 3.75011 6.48181 3.79726 6.30559 3.88756C6.12937 3.97786 5.97712 4.10874 5.86139 4.2694C5.74566 4.43007 5.66975 4.61593 5.63992 4.81168C5.61009 5.00743 5.62719 5.20747 5.68981 5.39531L6.39294 7.5H4.63434L2.94215 5.80781C2.88407 5.74979 2.81512 5.70378 2.73925 5.67242C2.66338 5.64105 2.58207 5.62494 2.49997 5.625H1.87497C1.68018 5.62518 1.48813 5.67087 1.31414 5.75844C1.14015 5.84601 0.989026 5.97303 0.872835 6.12937C0.756645 6.28571 0.678598 6.46704 0.644922 6.65889C0.611246 6.85074 0.622872 7.04781 0.678873 7.23438L1.77809 10.8977C1.96834 11.543 2.36305 12.1092 2.90282 12.5109C3.4426 12.9126 4.09823 13.1281 4.77106 13.125H18.75C18.9157 13.125 19.0747 13.0592 19.1919 12.9419C19.3091 12.8247 19.375 12.6658 19.375 12.5V10.625C19.375 9.7962 19.0457 9.00134 18.4597 8.41529C17.8736 7.82924 17.0788 7.5 16.25 7.5Z" fill="white"/>
</svg>
