<svg width="90" height="102" viewBox="0 0 90 102" fill="none" xmlns="http://www.w3.org/2000/svg">
<path d="M82.5 34.5H67.5V23.25C67.5 17.2826 65.1295 11.5597 60.9099 7.3401C56.6903 3.12053 50.9674 0.75 45 0.75C39.0326 0.75 33.3097 3.12053 29.0901 7.3401C24.8705 11.5597 22.5 17.2826 22.5 23.25V34.5H7.5C5.51088 34.5 3.60322 35.2902 2.1967 36.6967C0.790176 38.1032 0 40.0109 0 42V94.5C0 96.4891 0.790176 98.3968 2.1967 99.8033C3.60322 101.21 5.51088 102 7.5 102H82.5C84.4891 102 86.3968 101.21 87.8033 99.8033C89.2098 98.3968 90 96.4891 90 94.5V42C90 40.0109 89.2098 38.1032 87.8033 36.6967C86.3968 35.2902 84.4891 34.5 82.5 34.5ZM48.75 71.3578V83.25C48.75 84.2446 48.3549 85.1984 47.6517 85.9017C46.9484 86.6049 45.9946 87 45 87C44.0054 87 43.0516 86.6049 42.3484 85.9017C41.6451 85.1984 41.25 84.2446 41.25 83.25V71.3578C38.7479 70.4732 36.6392 68.7326 35.2964 66.4435C33.9536 64.1545 33.4632 61.4644 33.912 58.8488C34.3608 56.2332 35.7198 53.8605 37.7488 52.1499C39.7778 50.4394 42.3462 49.5012 45 49.5012C47.6538 49.5012 50.2222 50.4394 52.2512 52.1499C54.2802 53.8605 55.6392 56.2332 56.088 58.8488C56.5367 61.4644 56.0464 64.1545 54.7036 66.4435C53.3608 68.7326 51.2521 70.4732 48.75 71.3578ZM60 34.5H30V23.25C30 19.2718 31.5804 15.4564 34.3934 12.6434C37.2064 9.83035 41.0218 8.25 45 8.25C48.9782 8.25 52.7936 9.83035 55.6066 12.6434C58.4196 15.4564 60 19.2718 60 23.25V34.5Z" fill="#007042"/>
<path d="M82.5 34.5H67.5V23.25C67.5 17.2826 65.1295 11.5597 60.9099 7.3401C56.6903 3.12053 50.9674 0.75 45 0.75C39.0326 0.75 33.3097 3.12053 29.0901 7.3401C24.8705 11.5597 22.5 17.2826 22.5 23.25V34.5H7.5C5.51088 34.5 3.60322 35.2902 2.1967 36.6967C0.790176 38.1032 0 40.0109 0 42V94.5C0 96.4891 0.790176 98.3968 2.1967 99.8033C3.60322 101.21 5.51088 102 7.5 102H82.5C84.4891 102 86.3968 101.21 87.8033 99.8033C89.2098 98.3968 90 96.4891 90 94.5V42C90 40.0109 89.2098 38.1032 87.8033 36.6967C86.3968 35.2902 84.4891 34.5 82.5 34.5ZM48.75 71.3578V83.25C48.75 84.2446 48.3549 85.1984 47.6517 85.9017C46.9484 86.6049 45.9946 87 45 87C44.0054 87 43.0516 86.6049 42.3484 85.9017C41.6451 85.1984 41.25 84.2446 41.25 83.25V71.3578C38.7479 70.4732 36.6392 68.7326 35.2964 66.4435C33.9536 64.1545 33.4632 61.4644 33.912 58.8488C34.3608 56.2332 35.7198 53.8605 37.7488 52.1499C39.7778 50.4394 42.3462 49.5012 45 49.5012C47.6538 49.5012 50.2222 50.4394 52.2512 52.1499C54.2802 53.8605 55.6392 56.2332 56.088 58.8488C56.5367 61.4644 56.0464 64.1545 54.7036 66.4435C53.3608 68.7326 51.2521 70.4732 48.75 71.3578ZM60 34.5H30V23.25C30 19.2718 31.5804 15.4564 34.3934 12.6434C37.2064 9.83035 41.0218 8.25 45 8.25C48.9782 8.25 52.7936 9.83035 55.6066 12.6434C58.4196 15.4564 60 19.2718 60 23.25V34.5Z" fill="url(#paint0_linear_144_340)"/>
<defs>
<linearGradient id="paint0_linear_144_340" x1="45" y1="0.75" x2="45" y2="102.006" gradientUnits="userSpaceOnUse">
<stop stop-color="white" stop-opacity="0"/>
<stop offset="1" stop-color="white" stop-opacity="0.5"/>
</linearGradient>
</defs>
</svg>
