<svg width="312" height="312" viewBox="0 0 312 312" fill="none" xmlns="http://www.w3.org/2000/svg">
<g clip-path="url(#clip0_144_714)">
<g filter="url(#filter0_d_144_714)">
<path d="M312 155.992C312 242.144 242.156 312 156 312C69.8445 312 0 242.144 0 155.992C0 69.8411 65.8306 4.07381 148.528 0.165358C151.009 0.0601301 153.504 0 156 0C158.496 0 160.991 0.0450976 163.472 0.165358C246.154 4.07381 312 72.3365 312 155.992Z" fill="url(#paint0_linear_144_714)"/>
</g>
<path d="M156 308.256C240.089 308.256 308.256 240.089 308.256 156C308.256 71.9115 240.089 3.74414 156 3.74414C71.9113 3.74414 3.74402 71.9115 3.74402 156C3.74402 240.089 71.9113 308.256 156 308.256Z" fill="url(#paint1_linear_144_714)"/>
<circle cx="156" cy="12.4798" r="4.992" fill="url(#paint2_radial_144_714)"/>
<circle cx="156" cy="299.52" r="4.992" fill="url(#paint3_radial_144_714)"/>
<circle cx="12.4803" cy="156" r="4.992" fill="url(#paint4_radial_144_714)"/>
<circle cx="299.52" cy="156" r="4.992" fill="url(#paint5_radial_144_714)"/>
<circle cx="257.088" cy="53.6639" r="4.992" fill="url(#paint6_radial_144_714)"/>
<circle cx="54.9119" cy="258.336" r="4.992" fill="url(#paint7_radial_144_714)"/>
<circle cx="54.912" cy="53.6641" r="4.992" fill="url(#paint8_radial_144_714)"/>
<circle cx="258.336" cy="257.088" r="4.992" fill="url(#paint9_radial_144_714)"/>
</g>
<g clip-path="url(#clip1_144_714)">
<g filter="url(#filter1_d_144_714)">
<path d="M156 290.784C230.439 290.784 290.784 230.439 290.784 156C290.784 81.5607 230.439 21.2158 156 21.2158C81.5608 21.2158 21.216 81.5607 21.216 156C21.216 230.439 81.5608 290.784 156 290.784Z" fill="white"/>
</g>
<path d="M213.17 37.9692C195.947 29.6299 176.616 24.96 156.193 24.96C135.77 24.96 116.44 29.6299 99.216 37.9692C101.051 37.0898 102.915 36.2407 104.78 35.4371L156.193 155.992L207.606 35.4522C209.471 36.2558 211.336 37.0898 213.17 37.9843V37.9692Z" fill="#2FAF74"/>
<path d="M167.52 97.2469H151.296C151.379 97.3966 151.47 97.6046 151.57 97.8709C151.653 98.1205 151.753 98.395 151.87 98.6945C151.97 98.9941 152.069 99.2769 152.169 99.5432C152.253 99.8094 152.327 100.017 152.394 100.167H149.549C149.449 99.9675 149.316 99.7013 149.149 99.3685C148.983 99.019 148.8 98.6529 148.6 98.2702C148.4 97.8875 148.184 97.5297 147.951 97.1969C147.718 96.8475 147.502 96.5813 147.302 96.3982V93.403H167.52V97.2469ZM167.869 85.2499C167.869 86.4646 167.62 87.4713 167.12 88.27C166.621 89.0688 165.939 89.6678 165.074 90.0672C164.192 90.4665 163.177 90.6662 162.029 90.6662L152.968 90.6662C151.787 90.6662 150.755 90.4748 149.873 90.0921C148.974 89.7094 148.276 89.1187 147.776 88.32C147.277 87.5212 147.028 86.4979 147.028 85.2499C147.028 84.0185 147.277 83.0118 147.776 82.2297C148.276 81.431 148.974 80.8403 149.873 80.4576C150.755 80.0748 151.787 79.8835 152.968 79.8835H162.029C163.177 79.8835 164.192 80.0832 165.074 80.4825C165.939 80.8819 166.621 81.4809 167.12 82.2796C167.62 83.0784 167.869 84.0684 167.869 85.2499ZM164.475 85.2499C164.475 84.8006 164.333 84.4761 164.05 84.2764C163.767 84.0768 163.435 83.9436 163.052 83.8771C162.653 83.8105 162.286 83.7772 161.954 83.7772H153.043C152.677 83.7772 152.294 83.8105 151.895 83.8771C151.495 83.927 151.154 84.0518 150.871 84.2515C150.572 84.4512 150.422 84.784 150.422 85.2499C150.422 85.7158 150.572 86.0569 150.871 86.2732C151.154 86.4729 151.495 86.606 151.895 86.6726C152.294 86.7225 152.677 86.7475 153.043 86.7475H161.954C162.286 86.7475 162.653 86.7142 163.052 86.6476C163.435 86.5811 163.767 86.4396 164.05 86.2233C164.333 86.007 164.475 85.6825 164.475 85.2499ZM167.869 72.6958C167.869 73.9105 167.62 74.9172 167.12 75.7159C166.621 76.5147 165.939 77.1137 165.074 77.5131C164.192 77.9124 163.177 78.1121 162.029 78.1121H152.968C151.787 78.1121 150.755 77.9207 149.873 77.538C148.974 77.1553 148.276 76.5646 147.776 75.7659C147.277 74.9671 147.028 73.9438 147.028 72.6958C147.028 71.4644 147.277 70.4577 147.776 69.6756C148.276 68.8769 148.974 68.2862 149.873 67.9035C150.755 67.5207 151.787 67.3294 152.968 67.3294H162.029C163.177 67.3294 164.192 67.5291 165.074 67.9284C165.939 68.3278 166.621 68.9268 167.12 69.7255C167.62 70.5243 167.869 71.5143 167.869 72.6958ZM164.475 72.6958C164.475 72.2465 164.333 71.922 164.05 71.7223C163.767 71.5227 163.435 71.3895 163.052 71.323C162.653 71.2564 162.286 71.2231 161.954 71.2231H153.043C152.677 71.2231 152.294 71.2564 151.895 71.323C151.495 71.3729 151.154 71.4977 150.871 71.6974C150.572 71.8971 150.422 72.2299 150.422 72.6958C150.422 73.1617 150.572 73.5028 150.871 73.7191C151.154 73.9188 151.495 74.0519 151.895 74.1185C152.294 74.1684 152.677 74.1934 153.043 74.1934H161.954C162.286 74.1934 162.653 74.1601 163.052 74.0935C163.435 74.027 163.767 73.8855 164.05 73.6692C164.333 73.4529 164.475 73.1284 164.475 72.6958ZM167.52 58.8687L147.302 52.8034V50.5321L167.52 56.5974V58.8687ZM158.634 61.3148C158.634 62.9455 158.193 64.1103 157.311 64.8092C156.429 65.5081 155.123 65.8575 153.392 65.8575H152.369C150.605 65.8575 149.316 65.5164 148.5 64.8342C147.668 64.1519 147.252 62.9788 147.252 61.3148C147.252 59.6342 147.66 58.4527 148.475 57.7705C149.274 57.0882 150.547 56.7471 152.294 56.7471H153.467C155.165 56.7471 156.454 57.0966 157.336 57.7954C158.201 58.4777 158.634 59.6508 158.634 61.3148ZM156.163 61.3148C156.163 60.8822 156.046 60.566 155.813 60.3663C155.581 60.1666 155.248 60.0418 154.815 59.9919C154.382 59.942 153.875 59.917 153.293 59.917H152.419C151.537 59.917 150.871 59.9836 150.422 60.1167C149.973 60.2332 149.748 60.6326 149.748 61.3148C149.748 61.9804 149.973 62.3798 150.422 62.5129C150.855 62.646 151.52 62.7126 152.419 62.7126H153.317C153.9 62.7126 154.407 62.6876 154.84 62.6377C155.256 62.5711 155.581 62.438 155.813 62.2383C156.046 62.0386 156.163 61.7308 156.163 61.3148ZM167.57 48.086C167.57 49.7334 167.129 50.9065 166.247 51.6054C165.365 52.2876 164.067 52.6287 162.353 52.6287H161.305C159.557 52.6287 158.268 52.2959 157.436 51.6303C156.604 50.9481 156.188 49.7666 156.188 48.086C156.188 46.4054 156.596 45.2239 157.411 44.5417C158.21 43.8594 159.483 43.5183 161.23 43.5183H162.378C164.109 43.5183 165.406 43.8678 166.272 44.5666C167.137 45.2655 167.57 46.4386 167.57 48.086ZM165.099 48.086C165.099 47.6534 164.982 47.3455 164.749 47.1625C164.516 46.9628 164.192 46.838 163.776 46.7881C163.343 46.7215 162.844 46.6882 162.278 46.6882H161.355C160.456 46.6882 159.79 46.7548 159.358 46.8879C158.909 47.021 158.684 47.4204 158.684 48.086C158.684 48.7516 158.909 49.151 159.358 49.2841C159.807 49.4172 160.473 49.4838 161.355 49.4838H162.278C162.844 49.4838 163.343 49.4588 163.776 49.4089C164.192 49.359 164.516 49.2342 164.749 49.0345C164.982 48.8182 165.099 48.502 165.099 48.086Z" fill="white"/>
<path d="M248.652 63.4664C236.432 51.2456 222.392 41.9512 207.413 35.5679L156 156.123L276.549 104.708C270.166 89.7274 260.872 75.6872 248.652 63.4664Z" fill="#E65051"/>
<path d="M209.712 119.144C208.665 120.192 207.647 120.833 206.659 121.068C205.671 121.303 204.694 121.209 203.729 120.786C202.764 120.339 201.794 119.627 200.817 118.65L195.487 113.32C194.51 112.343 193.804 111.379 193.369 110.426C192.946 109.461 192.857 108.49 193.104 107.513C193.351 106.537 193.999 105.525 195.046 104.478C196.105 103.419 197.128 102.772 198.117 102.536C199.105 102.277 200.076 102.366 201.029 102.801C201.982 103.213 202.947 103.907 203.923 104.884L209.254 110.214C210.23 111.19 210.936 112.167 211.371 113.144C211.807 114.097 211.901 115.073 211.654 116.073C211.419 117.062 210.771 118.085 209.712 119.144ZM207.612 117.044C207.989 116.668 208.183 116.309 208.195 115.967C208.195 115.614 208.083 115.267 207.859 114.926C207.624 114.573 207.342 114.232 207.012 113.902L200.252 107.143C199.923 106.813 199.588 106.537 199.246 106.313C198.905 106.09 198.564 105.984 198.223 105.996C197.87 105.996 197.505 106.184 197.128 106.56C196.775 106.913 196.599 107.266 196.599 107.619C196.587 107.96 196.693 108.302 196.917 108.643C197.14 108.984 197.417 109.32 197.746 109.649L204.506 116.409C204.835 116.738 205.171 117.026 205.512 117.273C205.853 117.497 206.2 117.609 206.553 117.609C206.894 117.597 207.247 117.409 207.612 117.044ZM219.176 109.681C218.128 110.728 217.111 111.37 216.122 111.605C215.134 111.84 214.157 111.746 213.192 111.323C212.228 110.875 211.257 110.164 210.28 109.187L204.95 103.857C203.974 102.88 203.268 101.915 202.832 100.962C202.409 99.9976 202.32 99.0269 202.567 98.0503C202.815 97.0737 203.462 96.0618 204.509 95.0146C205.568 93.9556 206.592 93.3085 207.58 93.0731C208.568 92.8143 209.539 92.9025 210.492 93.3379C211.445 93.7497 212.41 94.4439 213.387 95.4205L218.717 100.751C219.693 101.727 220.399 102.704 220.835 103.68C221.27 104.633 221.364 105.61 221.117 106.61C220.882 107.599 220.234 108.622 219.176 109.681ZM217.075 107.581C217.452 107.204 217.646 106.846 217.658 106.504C217.658 106.151 217.546 105.804 217.322 105.463C217.087 105.11 216.805 104.769 216.475 104.439L209.715 97.6796C209.386 97.3502 209.051 97.0737 208.709 96.8501C208.368 96.6266 208.027 96.5207 207.686 96.5324C207.333 96.5324 206.968 96.7207 206.592 97.0972C206.239 97.4502 206.062 97.8032 206.062 98.1562C206.05 98.4974 206.156 98.8386 206.38 99.1798C206.603 99.5211 206.88 99.8564 207.209 100.186L213.969 106.946C214.298 107.275 214.634 107.563 214.975 107.81C215.316 108.034 215.663 108.146 216.016 108.146C216.358 108.134 216.711 107.946 217.075 107.581ZM224.456 104.013L210.16 89.7167L214.696 85.1808C215.555 84.3219 216.419 83.7865 217.29 83.5747C218.149 83.3512 219.014 83.4159 219.885 83.7689C220.767 84.1101 221.644 84.7161 222.514 85.5868C223.538 86.6104 224.162 87.587 224.385 88.5166C224.62 89.4343 224.562 90.3168 224.209 91.164C223.844 91.9994 223.273 92.8054 222.497 93.5819L221.173 94.9057L227.368 101.101L224.456 104.013ZM219.126 92.8583L220.149 91.8347C220.573 91.4111 220.832 91.0228 220.926 90.6698C221.02 90.2933 220.961 89.9168 220.749 89.5402C220.538 89.1637 220.202 88.746 219.743 88.2871C219.308 87.8518 218.908 87.5223 218.543 87.2988C218.19 87.0634 217.82 86.9752 217.431 87.034C217.043 87.0929 216.608 87.3635 216.125 87.8459L215.119 88.8519L219.126 92.8583ZM237.285 91.5717C236.403 92.4542 235.508 93.0307 234.602 93.3014C233.685 93.5602 232.749 93.519 231.796 93.1778C230.843 92.8131 229.837 92.1483 228.778 91.1834L230.861 88.2536C231.473 88.8184 232.026 89.2538 232.52 89.5597C233.014 89.8421 233.461 89.9833 233.861 89.9833C234.261 89.9597 234.614 89.795 234.92 89.4891C235.297 89.1126 235.432 88.7419 235.326 88.3772C235.232 88.0007 235.032 87.6594 234.726 87.3535C234.126 86.7534 233.479 86.4004 232.784 86.2945C232.09 86.1651 231.302 86.1298 230.419 86.1886L227.648 86.3828C226.672 86.4652 225.731 86.3946 224.825 86.171C223.93 85.9357 223.071 85.4062 222.248 84.5826C221.071 83.4059 220.512 82.1646 220.571 80.8585C220.63 79.5289 221.259 78.2641 222.46 77.0639C223.177 76.3462 223.883 75.8755 224.577 75.652C225.272 75.4284 225.942 75.3931 226.59 75.5461C227.237 75.6755 227.843 75.9285 228.407 76.305C228.972 76.658 229.496 77.0522 229.978 77.4875L227.86 80.3467C227.401 79.9349 226.978 79.5937 226.59 79.323C226.213 79.0406 225.848 78.8877 225.495 78.8642C225.154 78.8289 224.825 78.97 224.507 79.2877C224.166 79.629 224.042 80.0114 224.136 80.4349C224.219 80.8468 224.413 81.2056 224.719 81.5116C225.225 82.0175 225.754 82.3234 226.307 82.4293C226.86 82.5117 227.513 82.5293 228.266 82.4823L230.984 82.3058C232.102 82.2234 233.208 82.3058 234.302 82.5529C235.397 82.7764 236.432 83.3765 237.409 84.3531C238.079 85.0238 238.532 85.7827 238.768 86.6299C239.003 87.4771 238.997 88.3301 238.75 89.189C238.515 90.0362 238.026 90.8304 237.285 91.5717ZM238.642 82.802L227.117 72.8301L229.782 70.1651L239.577 81.8666L238.642 82.802ZM241.342 87.1261L238.818 84.6023L241.36 82.0608L243.884 84.5846L241.342 87.1261Z" fill="white"/>
<path d="M274.032 213.176C282.371 195.951 287.041 176.619 287.041 156.196C287.041 135.772 282.371 116.44 274.032 99.2161C274.927 101.051 275.761 102.916 276.564 104.781L156.015 156.196L276.564 207.611C275.761 209.476 274.927 211.341 274.032 213.176Z" fill="#FBA629"/>
<path d="M217.712 167.52V164.8L222.629 157.237C222.995 156.671 223.336 156.13 223.652 155.614C223.985 155.099 224.251 154.574 224.451 154.042C224.667 153.493 224.776 152.91 224.776 152.295C224.776 151.646 224.651 151.155 224.401 150.822C224.152 150.473 223.794 150.298 223.328 150.298C222.829 150.298 222.446 150.439 222.18 150.722C221.914 150.988 221.73 151.346 221.631 151.795C221.531 152.245 221.481 152.736 221.481 153.268V154.217H217.712V153.218C217.712 152.02 217.895 150.955 218.261 150.023C218.644 149.091 219.234 148.368 220.033 147.852C220.849 147.319 221.914 147.053 223.228 147.053C225.009 147.053 226.348 147.519 227.247 148.451C228.145 149.383 228.594 150.689 228.594 152.37C228.594 153.185 228.47 153.942 228.22 154.641C227.97 155.323 227.638 155.989 227.222 156.638C226.822 157.27 226.39 157.927 225.924 158.61L222.03 164.475H228.045V167.52H217.712ZM234.606 167.87C233.192 167.87 232.11 167.612 231.362 167.096C230.613 166.58 230.097 165.856 229.814 164.924C229.548 163.993 229.415 162.903 229.415 161.655H233.134C233.134 162.387 233.175 163.003 233.258 163.502C233.358 164.001 233.525 164.375 233.758 164.625C234.007 164.875 234.373 164.991 234.856 164.974C235.338 164.958 235.688 164.775 235.904 164.425C236.121 164.076 236.254 163.577 236.304 162.928C236.354 162.279 236.378 161.513 236.378 160.631C236.378 159.916 236.337 159.283 236.254 158.734C236.17 158.185 236.004 157.753 235.754 157.436C235.522 157.12 235.155 156.962 234.656 156.962C234.207 156.962 233.833 157.12 233.533 157.436C233.25 157.753 233.042 158.202 232.909 158.784H229.614L229.889 147.303H239.174V150.622H233.059L232.834 155.09C233.034 154.841 233.367 154.624 233.833 154.441C234.315 154.258 234.831 154.15 235.38 154.117C236.428 154.017 237.294 154.217 237.976 154.716C238.675 155.215 239.191 155.955 239.523 156.937C239.856 157.902 240.023 159.084 240.023 160.482C240.023 161.547 239.956 162.537 239.823 163.452C239.69 164.35 239.432 165.132 239.049 165.798C238.666 166.447 238.117 166.955 237.402 167.321C236.686 167.687 235.754 167.87 234.606 167.87ZM247.909 167.52L253.974 147.303H256.245L250.18 167.52H247.909ZM245.463 158.635C243.832 158.635 242.667 158.194 241.968 157.312C241.269 156.43 240.92 155.123 240.92 153.393V152.37C240.92 150.606 241.261 149.316 241.943 148.501C242.626 147.669 243.799 147.253 245.463 147.253C247.143 147.253 248.325 147.66 249.007 148.476C249.689 149.275 250.03 150.547 250.03 152.295V153.468C250.03 155.165 249.681 156.455 248.982 157.337C248.3 158.202 247.127 158.635 245.463 158.635ZM245.463 156.163C245.895 156.163 246.212 156.047 246.411 155.814C246.611 155.581 246.736 155.248 246.786 154.816C246.836 154.383 246.861 153.875 246.861 153.293V152.419C246.861 151.538 246.794 150.872 246.661 150.423C246.544 149.973 246.145 149.749 245.463 149.749C244.797 149.749 244.398 149.973 244.265 150.423C244.132 150.855 244.065 151.521 244.065 152.419V153.318C244.065 153.9 244.09 154.408 244.14 154.841C244.206 155.257 244.34 155.581 244.539 155.814C244.739 156.047 245.047 156.163 245.463 156.163ZM258.692 167.57C257.044 167.57 255.871 167.129 255.172 166.247C254.49 165.365 254.149 164.067 254.149 162.354V161.305C254.149 159.558 254.482 158.268 255.147 157.436C255.829 156.604 257.011 156.188 258.692 156.188C260.372 156.188 261.554 156.596 262.236 157.411C262.918 158.21 263.259 159.483 263.259 161.23V162.379C263.259 164.109 262.91 165.407 262.211 166.272C261.512 167.138 260.339 167.57 258.692 167.57ZM258.692 165.099C259.124 165.099 259.432 164.983 259.615 164.75C259.815 164.517 259.94 164.192 259.989 163.776C260.056 163.344 260.089 162.844 260.089 162.279V161.355C260.089 160.457 260.023 159.791 259.89 159.358C259.757 158.909 259.357 158.684 258.692 158.684C258.026 158.684 257.627 158.909 257.493 159.358C257.36 159.808 257.294 160.473 257.294 161.355V162.279C257.294 162.844 257.319 163.344 257.369 163.776C257.419 164.192 257.543 164.517 257.743 164.75C257.959 164.983 258.276 165.099 258.692 165.099Z" fill="white"/>
<path d="M248.652 248.657C260.872 236.436 270.166 222.396 276.549 207.415L156 156L207.413 276.555C222.392 270.172 236.432 260.877 248.652 248.657Z" fill="#E65051"/>
<path d="M192.868 209.726C191.821 208.679 191.18 207.661 190.945 206.673C190.709 205.684 190.804 204.708 191.227 203.743C191.674 202.778 192.386 201.807 193.363 200.831L198.693 195.5C199.669 194.524 200.634 193.818 201.587 193.383C202.552 192.959 203.523 192.871 204.499 193.118C205.476 193.365 206.488 194.012 207.535 195.059C208.594 196.118 209.241 197.142 209.477 198.13C209.735 199.119 209.647 200.089 209.212 201.042C208.8 201.995 208.106 202.96 207.129 203.937L201.799 209.267C200.822 210.244 199.846 210.95 198.869 211.385C197.916 211.82 196.94 211.914 195.939 211.667C194.951 211.432 193.927 210.785 192.868 209.726ZM194.969 207.626C195.345 208.002 195.704 208.196 196.045 208.208C196.398 208.208 196.745 208.096 197.087 207.873C197.44 207.637 197.781 207.355 198.11 207.026L204.87 200.266C205.2 199.936 205.476 199.601 205.7 199.26C205.923 198.919 206.029 198.577 206.017 198.236C206.017 197.883 205.829 197.518 205.453 197.142C205.1 196.789 204.747 196.612 204.394 196.612C204.052 196.601 203.711 196.706 203.37 196.93C203.029 197.154 202.693 197.43 202.364 197.76L195.604 204.519C195.275 204.849 194.986 205.184 194.739 205.525C194.516 205.867 194.404 206.214 194.404 206.567C194.416 206.908 194.604 207.261 194.969 207.626ZM202.332 219.189C201.284 218.142 200.643 217.124 200.408 216.136C200.172 215.147 200.267 214.171 200.69 213.206C201.137 212.241 201.849 211.27 202.826 210.294L208.156 204.964C209.132 203.987 210.097 203.281 211.05 202.846C212.015 202.422 212.986 202.334 213.963 202.581C214.939 202.828 215.951 203.475 216.998 204.522C218.057 205.581 218.704 206.605 218.94 207.593C219.199 208.582 219.11 209.552 218.675 210.505C218.263 211.459 217.569 212.423 216.592 213.4L211.262 218.73C210.286 219.707 209.309 220.413 208.332 220.848C207.379 221.283 206.403 221.377 205.403 221.13C204.414 220.895 203.391 220.248 202.332 219.189ZM204.432 217.089C204.808 217.465 205.167 217.659 205.508 217.671C205.861 217.671 206.209 217.559 206.55 217.336C206.903 217.1 207.244 216.818 207.573 216.489L214.333 209.729C214.663 209.399 214.939 209.064 215.163 208.723C215.386 208.382 215.492 208.04 215.48 207.699C215.48 207.346 215.292 206.981 214.916 206.605C214.563 206.252 214.21 206.075 213.857 206.075C213.515 206.064 213.174 206.17 212.833 206.393C212.492 206.617 212.156 206.893 211.827 207.223L205.067 213.982C204.738 214.312 204.45 214.647 204.202 214.988C203.979 215.33 203.867 215.677 203.867 216.03C203.879 216.371 204.067 216.724 204.432 217.089ZM208 224.469L222.296 210.173L226.832 214.709C227.691 215.568 228.226 216.433 228.438 217.304C228.662 218.162 228.597 219.027 228.244 219.898C227.903 220.78 227.297 221.657 226.426 222.528C225.402 223.551 224.426 224.175 223.496 224.399C222.578 224.634 221.696 224.575 220.849 224.222C220.013 223.857 219.207 223.287 218.431 222.51L217.107 221.186L210.912 227.381L208 224.469ZM219.154 219.139L220.178 220.163C220.602 220.586 220.99 220.845 221.343 220.939C221.72 221.033 222.096 220.975 222.473 220.763C222.849 220.551 223.267 220.216 223.726 219.757C224.161 219.321 224.49 218.921 224.714 218.557C224.949 218.204 225.038 217.833 224.979 217.445C224.92 217.056 224.649 216.621 224.167 216.139L223.161 215.133L219.154 219.139ZM220.441 237.298C219.559 236.416 218.982 235.522 218.711 234.616C218.453 233.698 218.494 232.763 218.835 231.81C219.2 230.856 219.865 229.85 220.829 228.791L223.759 230.874C223.194 231.486 222.759 232.039 222.453 232.533C222.171 233.027 222.03 233.474 222.03 233.874C222.053 234.275 222.218 234.628 222.524 234.933C222.9 235.31 223.271 235.445 223.636 235.339C224.012 235.245 224.353 235.045 224.659 234.739C225.259 234.139 225.612 233.492 225.718 232.798C225.848 232.104 225.883 231.315 225.824 230.433L225.63 227.662C225.548 226.685 225.618 225.744 225.842 224.838C226.077 223.944 226.607 223.085 227.43 222.261C228.607 221.085 229.848 220.526 231.154 220.585C232.484 220.643 233.749 221.273 234.949 222.473C235.667 223.191 236.137 223.897 236.361 224.591C236.584 225.285 236.62 225.956 236.467 226.603C236.337 227.25 236.084 227.856 235.708 228.421C235.355 228.986 234.961 229.509 234.525 229.992L231.666 227.874C232.078 227.415 232.419 226.991 232.69 226.603C232.972 226.226 233.125 225.862 233.149 225.509C233.184 225.167 233.043 224.838 232.725 224.52C232.384 224.179 232.001 224.056 231.578 224.15C231.166 224.232 230.807 224.426 230.501 224.732C229.995 225.238 229.689 225.768 229.583 226.321C229.501 226.874 229.483 227.527 229.531 228.28L229.707 230.998C229.789 232.115 229.707 233.221 229.46 234.316C229.236 235.41 228.636 236.445 227.66 237.422C226.989 238.093 226.23 238.546 225.383 238.781C224.536 239.016 223.683 239.01 222.824 238.763C221.977 238.528 221.182 238.04 220.441 237.298ZM229.211 238.655L239.183 227.13L241.848 229.795L230.146 239.591L229.211 238.655ZM224.887 241.356L227.411 238.832L229.952 241.373L227.428 243.897L224.887 241.356Z" fill="white"/>
<path d="M207.606 276.565L156.193 156.01L104.78 276.565C102.915 275.761 101.051 274.927 99.216 274.033C116.44 282.372 135.77 287.042 156.193 287.042C176.616 287.042 195.947 282.372 213.17 274.033C211.336 274.927 209.471 275.761 207.606 276.565Z" fill="#39A1E8"/>
<path d="M144.13 222.391C144.13 220.976 144.388 219.895 144.904 219.146C145.42 218.397 146.144 217.881 147.076 217.599C148.007 217.332 149.097 217.199 150.345 217.199V220.918C149.613 220.918 148.997 220.96 148.498 221.043C147.999 221.143 147.625 221.309 147.375 221.542C147.125 221.792 147.009 222.158 147.026 222.64C147.042 223.123 147.225 223.472 147.575 223.689C147.924 223.905 148.423 224.038 149.072 224.088C149.721 224.138 150.487 224.163 151.369 224.163C152.084 224.163 152.716 224.121 153.266 224.038C153.815 223.955 154.247 223.789 154.564 223.539C154.88 223.306 155.038 222.94 155.038 222.441C155.038 221.992 154.88 221.617 154.564 221.318C154.247 221.035 153.798 220.827 153.216 220.694V217.399L164.697 217.673V226.959H161.378V220.843L156.91 220.619C157.159 220.818 157.376 221.151 157.559 221.617C157.742 222.1 157.85 222.616 157.883 223.165C157.983 224.213 157.783 225.078 157.284 225.76C156.785 226.459 156.044 226.975 155.063 227.308C154.098 227.641 152.916 227.807 151.518 227.807C150.453 227.807 149.463 227.741 148.548 227.608C147.65 227.474 146.868 227.216 146.202 226.834C145.553 226.451 145.045 225.902 144.679 225.186C144.313 224.471 144.13 223.539 144.13 222.391ZM144.13 234.42C144.13 233.206 144.38 232.199 144.879 231.4C145.378 230.602 146.06 230.003 146.926 229.603C147.808 229.204 148.823 229.004 149.971 229.004H159.031C160.213 229.004 161.244 229.195 162.126 229.578C163.025 229.961 163.724 230.552 164.223 231.35C164.722 232.149 164.972 233.172 164.972 234.42C164.972 235.652 164.722 236.659 164.223 237.441C163.724 238.239 163.025 238.83 162.126 239.213C161.244 239.595 160.213 239.787 159.031 239.787H149.971C148.823 239.787 147.808 239.587 146.926 239.188C146.06 238.788 145.378 238.189 144.879 237.391C144.38 236.592 144.13 235.602 144.13 234.42ZM147.525 234.42C147.525 234.87 147.666 235.194 147.949 235.394C148.232 235.594 148.565 235.727 148.948 235.793C149.347 235.86 149.713 235.893 150.046 235.893H158.956C159.323 235.893 159.705 235.86 160.105 235.793C160.504 235.743 160.845 235.619 161.128 235.419C161.428 235.219 161.577 234.886 161.577 234.42C161.577 233.955 161.428 233.613 161.128 233.397C160.845 233.197 160.504 233.064 160.105 232.998C159.705 232.948 159.323 232.923 158.956 232.923H150.046C149.713 232.923 149.347 232.956 148.948 233.023C148.565 233.089 148.232 233.231 147.949 233.447C147.666 233.663 147.525 233.988 147.525 234.42ZM144.48 248.247L164.697 254.313V256.584L144.48 250.519V248.247ZM153.365 245.801C153.365 244.171 153.806 243.006 154.688 242.307C155.57 241.608 156.876 241.259 158.607 241.259H159.63C161.394 241.259 162.684 241.6 163.499 242.282C164.331 242.964 164.747 244.137 164.747 245.801C164.747 247.482 164.34 248.663 163.524 249.346C162.725 250.028 161.452 250.369 159.705 250.369H158.532C156.835 250.369 155.545 250.02 154.663 249.321C153.798 248.639 153.365 247.465 153.365 245.801ZM155.836 245.801C155.836 246.234 155.953 246.55 156.186 246.75C156.419 246.95 156.752 247.074 157.184 247.124C157.617 247.174 158.124 247.199 158.707 247.199H159.58C160.462 247.199 161.128 247.133 161.577 246.999C162.027 246.883 162.251 246.484 162.251 245.801C162.251 245.136 162.027 244.736 161.577 244.603C161.145 244.47 160.479 244.404 159.58 244.404H158.682C158.1 244.404 157.592 244.429 157.159 244.479C156.743 244.545 156.419 244.678 156.186 244.878C155.953 245.078 155.836 245.385 155.836 245.801ZM144.43 259.03C144.43 257.383 144.871 256.21 145.753 255.511C146.635 254.829 147.932 254.487 149.646 254.487H150.695C152.442 254.487 153.732 254.82 154.564 255.486C155.396 256.168 155.812 257.35 155.812 259.03C155.812 260.711 155.404 261.892 154.588 262.575C153.79 263.257 152.517 263.598 150.77 263.598H149.621C147.891 263.598 146.593 263.248 145.728 262.55C144.862 261.851 144.43 260.678 144.43 259.03ZM146.901 259.03C146.901 259.463 147.017 259.771 147.25 259.954C147.483 260.153 147.808 260.278 148.224 260.328C148.656 260.395 149.156 260.428 149.721 260.428H150.645C151.543 260.428 152.209 260.361 152.642 260.228C153.091 260.095 153.316 259.696 153.316 259.03C153.316 258.365 153.091 257.965 152.642 257.832C152.192 257.699 151.527 257.632 150.645 257.632H149.721C149.156 257.632 148.656 257.657 148.224 257.707C147.808 257.757 147.483 257.882 147.25 258.082C147.017 258.298 146.901 258.614 146.901 259.03Z" fill="white"/>
<path d="M63.4648 248.657C75.685 260.877 89.7246 270.172 104.704 276.555L156.117 156L35.5676 207.415C41.9506 222.396 51.2446 236.436 63.4648 248.657Z" fill="#E65051"/>
<path d="M102.274 192.868C103.321 191.821 104.339 191.18 105.327 190.945C106.316 190.709 107.292 190.803 108.257 191.227C109.222 191.674 110.193 192.386 111.169 193.363L116.499 198.693C117.476 199.669 118.182 200.634 118.617 201.587C119.041 202.552 119.129 203.523 118.882 204.499C118.635 205.476 117.988 206.488 116.941 207.535C115.882 208.594 114.858 209.241 113.87 209.476C112.881 209.735 111.911 209.647 110.958 209.212C110.005 208.8 109.04 208.106 108.063 207.129L102.733 201.799C101.756 200.822 101.05 199.846 100.615 198.869C100.18 197.916 100.086 196.939 100.333 195.939C100.568 194.951 101.215 193.927 102.274 192.868ZM104.374 194.969C103.998 195.345 103.804 195.704 103.792 196.045C103.792 196.398 103.904 196.745 104.127 197.087C104.363 197.44 104.645 197.781 104.974 198.11L111.734 204.87C112.064 205.199 112.399 205.476 112.74 205.699C113.081 205.923 113.423 206.029 113.764 206.017C114.117 206.017 114.482 205.829 114.858 205.452C115.211 205.099 115.388 204.746 115.388 204.393C115.399 204.052 115.293 203.711 115.07 203.37C114.846 203.029 114.57 202.693 114.24 202.364L107.481 195.604C107.151 195.275 106.816 194.986 106.475 194.739C106.133 194.516 105.786 194.404 105.433 194.404C105.092 194.416 104.739 194.604 104.374 194.969ZM92.811 202.331C93.8582 201.284 94.876 200.643 95.8643 200.408C96.8527 200.172 97.8293 200.266 98.7941 200.69C99.759 201.137 100.73 201.849 101.706 202.826L107.036 208.156C108.013 209.132 108.719 210.097 109.154 211.05C109.578 212.015 109.666 212.986 109.419 213.962C109.172 214.939 108.525 215.951 107.478 216.998C106.419 218.057 105.395 218.704 104.407 218.94C103.418 219.198 102.448 219.11 101.494 218.675C100.541 218.263 99.5766 217.569 98.6 216.592L93.2699 211.262C92.2933 210.285 91.5873 209.309 91.1519 208.332C90.7166 207.379 90.6225 206.403 90.8695 205.402C91.1049 204.414 91.752 203.39 92.811 202.331ZM94.9113 204.432C94.5347 204.808 94.3406 205.167 94.3288 205.508C94.3288 205.861 94.4406 206.208 94.6642 206.55C94.8995 206.903 95.1819 207.244 95.5113 207.573L102.271 214.333C102.601 214.663 102.936 214.939 103.277 215.163C103.618 215.386 103.96 215.492 104.301 215.48C104.654 215.48 105.018 215.292 105.395 214.915C105.748 214.562 105.924 214.21 105.924 213.857C105.936 213.515 105.83 213.174 105.607 212.833C105.383 212.492 105.107 212.156 104.777 211.827L98.0175 205.067C97.6881 204.738 97.3528 204.449 97.0115 204.202C96.6703 203.979 96.3232 203.867 95.9702 203.867C95.629 203.879 95.276 204.067 94.9113 204.432ZM87.5308 208L101.827 222.296L97.2909 226.832C96.432 227.691 95.5671 228.226 94.6964 228.438C93.8375 228.662 92.9727 228.597 92.102 228.244C91.2195 227.903 90.3429 227.297 89.4722 226.426C88.4485 225.402 87.8249 224.426 87.6014 223.496C87.3661 222.578 87.4249 221.696 87.7779 220.849C88.1426 220.013 88.7133 219.207 89.4899 218.431L90.8136 217.107L84.6186 210.912L87.5308 208ZM92.8609 219.154L91.8372 220.178C91.4136 220.602 91.1548 220.99 91.0607 221.343C90.9665 221.719 91.0254 222.096 91.2371 222.472C91.4489 222.849 91.7843 223.267 92.2432 223.726C92.6785 224.161 93.0786 224.49 93.4433 224.714C93.7963 224.949 94.1669 225.038 94.5552 224.979C94.9435 224.92 95.3789 224.649 95.8613 224.167L96.8673 223.161L92.8609 219.154ZM74.7015 220.441C75.5839 219.559 76.4782 218.982 77.3842 218.711C78.3019 218.452 79.2374 218.494 80.1904 218.835C81.1435 219.2 82.1495 219.864 83.2085 220.829L81.1258 223.759C80.514 223.194 79.961 222.759 79.4668 222.453C78.9726 222.171 78.5255 222.029 78.1254 222.029C77.7254 222.053 77.3724 222.218 77.0665 222.524C76.69 222.9 76.5547 223.271 76.6605 223.636C76.7547 224.012 76.9547 224.353 77.2606 224.659C77.8607 225.259 78.5079 225.612 79.2021 225.718C79.8963 225.848 80.6846 225.883 81.5671 225.824L84.338 225.63C85.3146 225.548 86.2559 225.618 87.1619 225.842C88.0562 226.077 88.9151 226.607 89.7387 227.43C90.9154 228.607 91.4743 229.848 91.4154 231.154C91.3566 232.484 90.7271 233.749 89.527 234.949C88.8092 235.667 88.1032 236.137 87.409 236.361C86.7148 236.584 86.0441 236.62 85.397 236.467C84.7499 236.337 84.1439 236.084 83.5791 235.708C83.0143 235.355 82.4907 234.961 82.0083 234.525L84.1262 231.666C84.5851 232.078 85.0087 232.419 85.397 232.69C85.7735 232.972 86.1383 233.125 86.4913 233.149C86.8325 233.184 87.1619 233.043 87.4796 232.725C87.8208 232.384 87.9444 232.001 87.8503 231.578C87.7679 231.166 87.5738 230.807 87.2678 230.501C86.7619 229.995 86.2324 229.689 85.6794 229.583C85.1264 229.501 84.4733 229.483 83.7203 229.53L81.0023 229.707C79.8845 229.789 78.7785 229.707 77.6842 229.46C76.59 229.236 75.5545 228.636 74.5779 227.66C73.9072 226.989 73.4542 226.23 73.2189 225.383C72.9836 224.536 72.9895 223.683 73.2366 222.824C73.4719 221.976 73.9602 221.182 74.7015 220.441ZM73.3445 229.211L84.8696 239.183L82.2045 241.848L72.4091 230.146L73.3445 229.211ZM70.6442 224.887L73.168 227.41L70.6265 229.952L68.1027 227.428L70.6442 224.887Z" fill="white"/>
<path d="M37.9686 99.2161C29.6298 116.44 24.96 135.772 24.96 156.196C24.96 176.619 29.6298 195.951 37.9686 213.176C37.0741 211.341 36.2402 209.476 35.4367 207.611L155.986 156.196L35.4518 104.781C36.2554 102.916 37.0893 101.051 37.9838 99.2161H37.9686Z" fill="#FBA629"/>
<path d="M91.2296 144.48V160.704C91.3794 160.621 91.5874 160.53 91.8536 160.43C92.1032 160.346 92.3778 160.247 92.6773 160.13C92.9768 160.03 93.2597 159.93 93.526 159.831C93.7922 159.747 94.0002 159.673 94.15 159.606V162.451C93.9503 162.551 93.684 162.684 93.3512 162.851C93.0018 163.017 92.6357 163.2 92.253 163.4C91.8703 163.6 91.5125 163.816 91.1797 164.049C90.8303 164.282 90.564 164.498 90.381 164.698H87.3858V144.48H91.2296ZM79.2327 144.131C80.4474 144.131 81.4541 144.38 82.2528 144.88C83.0515 145.379 83.6506 146.061 84.0499 146.926C84.4493 147.808 84.649 148.823 84.649 149.971V159.032C84.649 160.213 84.4576 161.245 84.0749 162.127C83.6922 163.026 83.1015 163.724 82.3027 164.224C81.504 164.723 80.4807 164.972 79.2327 164.972C78.0013 164.972 76.9946 164.723 76.2125 164.224C75.4138 163.724 74.8231 163.026 74.4403 162.127C74.0576 161.245 73.8663 160.213 73.8663 159.032V149.971C73.8663 148.823 74.0659 147.808 74.4653 146.926C74.8647 146.061 75.4637 145.379 76.2624 144.88C77.0611 144.38 78.0512 144.131 79.2327 144.131ZM79.2327 147.525C78.7834 147.525 78.4589 147.667 78.2592 147.95C78.0595 148.233 77.9264 148.565 77.8599 148.948C77.7933 149.347 77.76 149.714 77.76 150.046V158.957C77.76 159.323 77.7933 159.706 77.8599 160.105C77.9098 160.505 78.0346 160.846 78.2343 161.129C78.4339 161.428 78.7667 161.578 79.2327 161.578C79.6986 161.578 80.0397 161.428 80.256 161.129C80.4557 160.846 80.5888 160.505 80.6554 160.105C80.7053 159.706 80.7303 159.323 80.7303 158.957V150.046C80.7303 149.714 80.697 149.347 80.6304 148.948C80.5639 148.565 80.4224 148.233 80.2061 147.95C79.9898 147.667 79.6653 147.525 79.2327 147.525ZM65.4056 144.48L59.3403 164.698H57.069L63.1342 144.48H65.4056ZM67.8517 153.366C69.4824 153.366 70.6472 153.807 71.3461 154.689C72.045 155.571 72.3944 156.877 72.3944 158.608V159.631C72.3944 161.395 72.0533 162.684 71.371 163.5C70.6888 164.332 69.5157 164.748 67.8517 164.748C66.171 164.748 64.9896 164.34 64.3074 163.525C63.6251 162.726 63.284 161.453 63.284 159.706V158.533C63.284 156.835 63.6334 155.546 64.3323 154.664C65.0146 153.799 66.1877 153.366 67.8517 153.366ZM67.8517 155.837C67.419 155.837 67.1029 155.954 66.9032 156.186C66.7035 156.419 66.5787 156.752 66.5288 157.185C66.4789 157.618 66.4539 158.125 66.4539 158.707V159.581C66.4539 160.463 66.5205 161.129 66.6536 161.578C66.7701 162.027 67.1694 162.252 67.8517 162.252C68.5173 162.252 68.9166 162.027 69.0498 161.578C69.1829 161.145 69.2494 160.48 69.2494 159.581V158.682C69.2494 158.1 69.2245 157.593 69.1746 157.16C69.108 156.744 68.9749 156.419 68.7752 156.186C68.5755 155.954 68.2677 155.837 67.8517 155.837ZM54.6229 144.43C56.2702 144.43 57.4434 144.871 58.1422 145.753C58.8245 146.635 59.1656 147.933 59.1656 149.647V150.695C59.1656 152.442 58.8328 153.732 58.1672 154.564C57.485 155.396 56.3035 155.812 54.6229 155.812C52.9422 155.812 51.7608 155.404 51.0786 154.589C50.3963 153.79 50.0552 152.517 50.0552 150.77V149.622C50.0552 147.891 50.4046 146.594 51.1035 145.728C51.8024 144.863 52.9755 144.43 54.6229 144.43ZM54.6229 146.901C54.1902 146.901 53.8824 147.018 53.6994 147.251C53.4997 147.484 53.3749 147.808 53.325 148.224C53.2584 148.657 53.2251 149.156 53.2251 149.722V150.645C53.2251 151.544 53.2917 152.21 53.4248 152.642C53.5579 153.091 53.9573 153.316 54.6229 153.316C55.2885 153.316 55.6878 153.091 55.821 152.642C55.9541 152.193 56.0206 151.527 56.0206 150.645V149.722C56.0206 149.156 55.9957 148.657 55.9458 148.224C55.8958 147.808 55.771 147.484 55.5714 147.251C55.355 147.018 55.0389 146.901 54.6229 146.901Z" fill="white"/>
<path d="M63.4648 63.4664C51.2446 75.6872 41.9506 89.7274 35.5676 104.708L156.117 156.123L104.704 35.5679C89.7246 41.9512 75.685 51.2456 63.4648 63.4664Z" fill="#E65051"/>
<path d="M119.724 102.867C120.771 103.914 121.412 104.932 121.647 105.92C121.883 106.909 121.789 107.885 121.365 108.85C120.918 109.815 120.206 110.786 119.229 111.762L113.899 117.092C112.923 118.069 111.958 118.775 111.005 119.21C110.04 119.634 109.069 119.722 108.093 119.475C107.116 119.228 106.104 118.581 105.057 117.534C103.998 116.475 103.351 115.451 103.116 114.463C102.857 113.474 102.945 112.503 103.38 111.55C103.792 110.597 104.486 109.633 105.463 108.656L110.793 103.326C111.77 102.349 112.746 101.643 113.723 101.208C114.676 100.773 115.653 100.678 116.653 100.925C117.641 101.161 118.665 101.808 119.724 102.867ZM117.623 104.967C117.247 104.591 116.888 104.397 116.547 104.385C116.194 104.385 115.847 104.497 115.505 104.72C115.152 104.955 114.811 105.238 114.482 105.567L107.722 112.327C107.393 112.656 107.116 112.992 106.893 113.333C106.669 113.674 106.563 114.015 106.575 114.357C106.575 114.71 106.763 115.074 107.14 115.451C107.493 115.804 107.846 115.98 108.199 115.98C108.54 115.992 108.881 115.886 109.222 115.663C109.564 115.439 109.899 115.163 110.228 114.833L116.988 108.073C117.317 107.744 117.606 107.409 117.853 107.067C118.076 106.726 118.188 106.379 118.188 106.026C118.176 105.685 117.988 105.332 117.623 104.967ZM110.261 93.4038C111.308 94.451 111.949 95.4688 112.184 96.4572C112.42 97.4455 112.326 98.4221 111.902 99.387C111.455 100.352 110.743 101.323 109.766 102.299L104.436 107.629C103.46 108.606 102.495 109.312 101.542 109.747C100.577 110.171 99.6062 110.259 98.6296 110.012C97.653 109.765 96.6411 109.118 95.5939 108.07C94.535 107.011 93.8878 105.988 93.6525 104.999C93.3936 104.011 93.4819 103.04 93.9172 102.087C94.3291 101.134 95.0233 100.169 95.9999 99.1928L101.33 93.8627C102.307 92.8861 103.283 92.1801 104.26 91.7448C105.213 91.3094 106.189 91.2153 107.19 91.4624C108.178 91.6977 109.202 92.3448 110.261 93.4038ZM108.16 95.5041C107.784 95.1276 107.425 94.9334 107.084 94.9217C106.731 94.9217 106.384 95.0334 106.042 95.257C105.689 95.4923 105.348 95.7747 105.019 96.1042L98.259 102.864C97.9295 103.193 97.653 103.529 97.4295 103.87C97.2059 104.211 97.1 104.552 97.1118 104.894C97.1118 105.247 97.3 105.611 97.6766 105.988C98.0295 106.341 98.3825 106.517 98.7355 106.517C99.0767 106.529 99.418 106.423 99.7592 106.2C100.1 105.976 100.436 105.7 100.765 105.37L107.525 98.6104C107.854 98.2809 108.143 97.9456 108.39 97.6044C108.613 97.2631 108.725 96.916 108.725 96.5631C108.713 96.2218 108.525 95.8688 108.16 95.5041ZM104.592 88.1236L90.2961 102.42L85.7602 97.8837C84.9012 97.0248 84.3659 96.16 84.1541 95.2893C83.9305 94.4303 83.9952 93.5655 84.3482 92.6948C84.6895 91.8123 85.2954 90.9357 86.1661 90.065C87.1898 89.0414 88.1664 88.4178 89.0959 88.1942C90.0137 87.9589 90.8962 88.0177 91.7433 88.3707C92.5787 88.7355 93.3847 89.3061 94.1613 90.0827L95.485 91.4064L101.68 85.2115L104.592 88.1236ZM93.4377 93.4537L92.414 92.4301C91.9904 92.0065 91.6021 91.7476 91.2491 91.6535C90.8726 91.5594 90.4961 91.6182 90.1196 91.83C89.7431 92.0418 89.3254 92.3771 88.8665 92.836C88.4311 93.2714 88.1017 93.6714 87.8781 94.0362C87.6428 94.3891 87.5545 94.7598 87.6134 95.1481C87.6722 95.5364 87.9428 95.9717 88.4252 96.4541L89.4313 97.4601L93.4377 93.4537ZM92.1511 75.2943C93.0335 76.1768 93.6101 77.071 93.8807 77.977C94.1396 78.8948 94.0984 79.8302 93.7572 80.7833C93.3924 81.7363 92.7276 82.7423 91.7628 83.8013L88.833 81.7187C89.3978 81.1068 89.8331 80.5538 90.139 80.0596C90.4214 79.5655 90.5626 79.1183 90.5626 78.7183C90.5391 78.3182 90.3744 77.9652 90.0684 77.6593C89.6919 77.2828 89.3213 77.1475 88.9565 77.2534C88.58 77.3475 88.2388 77.5475 87.9329 77.8535C87.3328 78.4535 86.9798 79.1007 86.8739 79.7949C86.7445 80.4891 86.7092 81.2774 86.768 82.1599L86.9621 84.9309C87.0445 85.9075 86.9739 86.8488 86.7503 87.7548C86.515 88.649 85.9855 89.5079 85.1619 90.3316C83.9853 91.5082 82.7439 92.0671 81.4379 92.0083C80.1083 91.9494 78.8434 91.3199 77.6433 90.1198C76.9255 89.402 76.4549 88.6961 76.2313 88.0019C76.0078 87.3077 75.9725 86.637 76.1254 85.9898C76.2548 85.3427 76.5078 84.7367 76.8843 84.1719C77.2373 83.6072 77.6315 83.0836 78.0668 82.6011L80.926 84.7191C80.5142 85.178 80.173 85.6015 79.9024 85.9898C79.62 86.3664 79.467 86.7311 79.4435 87.0841C79.4082 87.4253 79.5494 87.7548 79.8671 88.0725C80.2083 88.4137 80.5907 88.5372 81.0143 88.4431C81.4261 88.3607 81.785 88.1666 82.0909 87.8607C82.5969 87.3547 82.9028 86.8252 83.0087 86.2722C83.091 85.7192 83.1087 85.0662 83.0616 84.3131L82.8851 81.5951C82.8028 80.4773 82.8851 79.3713 83.1322 78.277C83.3558 77.1828 83.9559 76.1474 84.9325 75.1708C85.6031 74.5001 86.3621 74.0471 87.2092 73.8118C88.0564 73.5764 88.9095 73.5823 89.7684 73.8294C90.6156 74.0647 91.4098 74.553 92.1511 75.2943ZM83.3814 73.9374L73.4095 85.4624L70.7444 82.7974L82.446 73.0019L83.3814 73.9374ZM87.7055 71.237L85.1816 73.7609L82.6401 71.2194L85.164 68.6955L87.7055 71.237Z" fill="white"/>
<path style="mix-blend-mode:multiply" d="M156 287.04C228.371 287.04 287.04 228.371 287.04 156C287.04 83.6286 228.371 24.96 156 24.96C83.6286 24.96 24.96 83.6286 24.96 156C24.96 228.371 83.6286 287.04 156 287.04Z" fill="url(#paint10_radial_144_714)"/>
<g filter="url(#filter2_d_144_714)">
<path d="M155.927 185.952C172.469 185.952 185.879 172.542 185.879 156C185.879 139.458 172.469 126.048 155.927 126.048C139.385 126.048 125.975 139.458 125.975 156C125.975 172.542 139.385 185.952 155.927 185.952Z" fill="url(#paint11_linear_144_714)"/>
</g>
<path d="M156 107.328L168.969 129.792H143.03L156 107.328Z" fill="url(#paint12_linear_144_714)"/>
<path d="M155.927 185.952C172.469 185.952 185.879 172.542 185.879 156C185.879 139.458 172.469 126.048 155.927 126.048C139.385 126.048 125.975 139.458 125.975 156C125.975 172.542 139.385 185.952 155.927 185.952Z" fill="url(#paint13_linear_144_714)"/>
<path d="M177.347 168.48C184.239 156.542 180.149 141.276 168.211 134.384C156.273 127.491 141.007 131.582 134.115 143.52C127.222 155.458 131.313 170.723 143.251 177.616C155.189 184.508 170.454 180.418 177.347 168.48Z" fill="url(#paint14_angular_144_714)"/>
</g>
<defs>
<filter id="filter0_d_144_714" x="-32.448" y="-32.448" width="376.896" height="376.896" filterUnits="userSpaceOnUse" color-interpolation-filters="sRGB">
<feFlood flood-opacity="0" result="BackgroundImageFix"/>
<feColorMatrix in="SourceAlpha" type="matrix" values="0 0 0 0 0 0 0 0 0 0 0 0 0 0 0 0 0 0 127 0" result="hardAlpha"/>
<feMorphology radius="7.488" operator="erode" in="SourceAlpha" result="effect1_dropShadow_144_714"/>
<feOffset/>
<feGaussianBlur stdDeviation="19.968"/>
<feColorMatrix type="matrix" values="0 0 0 0 0.0625882 0 0 0 0 0.0926346 0 0 0 0 0.15702 0 0 0 0.12 0"/>
<feBlend mode="normal" in2="BackgroundImageFix" result="effect1_dropShadow_144_714"/>
<feBlend mode="normal" in="SourceGraphic" in2="effect1_dropShadow_144_714" result="shape"/>
</filter>
<filter id="filter1_d_144_714" x="-11.232" y="-11.2322" width="334.464" height="334.464" filterUnits="userSpaceOnUse" color-interpolation-filters="sRGB">
<feFlood flood-opacity="0" result="BackgroundImageFix"/>
<feColorMatrix in="SourceAlpha" type="matrix" values="0 0 0 0 0 0 0 0 0 0 0 0 0 0 0 0 0 0 127 0" result="hardAlpha"/>
<feMorphology radius="7.488" operator="erode" in="SourceAlpha" result="effect1_dropShadow_144_714"/>
<feOffset/>
<feGaussianBlur stdDeviation="19.968"/>
<feColorMatrix type="matrix" values="0 0 0 0 0.0625882 0 0 0 0 0.0926346 0 0 0 0 0.15702 0 0 0 0.12 0"/>
<feBlend mode="normal" in2="BackgroundImageFix" result="effect1_dropShadow_144_714"/>
<feBlend mode="normal" in="SourceGraphic" in2="effect1_dropShadow_144_714" result="shape"/>
</filter>
<filter id="filter2_d_144_714" x="93.5268" y="93.5999" width="124.8" height="124.8" filterUnits="userSpaceOnUse" color-interpolation-filters="sRGB">
<feFlood flood-opacity="0" result="BackgroundImageFix"/>
<feColorMatrix in="SourceAlpha" type="matrix" values="0 0 0 0 0 0 0 0 0 0 0 0 0 0 0 0 0 0 127 0" result="hardAlpha"/>
<feMorphology radius="7.488" operator="erode" in="SourceAlpha" result="effect1_dropShadow_144_714"/>
<feOffset/>
<feGaussianBlur stdDeviation="19.968"/>
<feColorMatrix type="matrix" values="0 0 0 0 0.0625882 0 0 0 0 0.0926346 0 0 0 0 0.15702 0 0 0 1 0"/>
<feBlend mode="normal" in2="BackgroundImageFix" result="effect1_dropShadow_144_714"/>
<feBlend mode="normal" in="SourceGraphic" in2="effect1_dropShadow_144_714" result="shape"/>
</filter>
<linearGradient id="paint0_linear_144_714" x1="156" y1="0" x2="156" y2="312" gradientUnits="userSpaceOnUse">
<stop stop-color="#FF7387"/>
<stop offset="1" stop-color="#AA171F"/>
</linearGradient>
<linearGradient id="paint1_linear_144_714" x1="308.256" y1="3.74415" x2="3.74401" y2="308.256" gradientUnits="userSpaceOnUse">
<stop stop-color="#F22025"/>
<stop offset="0.497808" stop-color="#FE5426"/>
<stop offset="1" stop-color="#F22025"/>
</linearGradient>
<radialGradient id="paint2_radial_144_714" cx="0" cy="0" r="1" gradientUnits="userSpaceOnUse" gradientTransform="translate(156 12.4798) rotate(90) scale(4.992)">
<stop stop-color="white"/>
<stop offset="1" stop-color="#E3A455"/>
</radialGradient>
<radialGradient id="paint3_radial_144_714" cx="0" cy="0" r="1" gradientUnits="userSpaceOnUse" gradientTransform="translate(156 299.52) rotate(90) scale(4.992)">
<stop stop-color="white"/>
<stop offset="1" stop-color="#E3A455"/>
</radialGradient>
<radialGradient id="paint4_radial_144_714" cx="0" cy="0" r="1" gradientUnits="userSpaceOnUse" gradientTransform="translate(12.4803 156) rotate(90) scale(4.992)">
<stop stop-color="white"/>
<stop offset="1" stop-color="#E3A455"/>
</radialGradient>
<radialGradient id="paint5_radial_144_714" cx="0" cy="0" r="1" gradientUnits="userSpaceOnUse" gradientTransform="translate(299.52 156) rotate(90) scale(4.992)">
<stop stop-color="white"/>
<stop offset="1" stop-color="#E3A455"/>
</radialGradient>
<radialGradient id="paint6_radial_144_714" cx="0" cy="0" r="1" gradientUnits="userSpaceOnUse" gradientTransform="translate(257.088 53.6639) rotate(90) scale(4.992)">
<stop stop-color="white"/>
<stop offset="1" stop-color="#E3A455"/>
</radialGradient>
<radialGradient id="paint7_radial_144_714" cx="0" cy="0" r="1" gradientUnits="userSpaceOnUse" gradientTransform="translate(54.9119 258.336) rotate(90) scale(4.992)">
<stop stop-color="white"/>
<stop offset="1" stop-color="#E3A455"/>
</radialGradient>
<radialGradient id="paint8_radial_144_714" cx="0" cy="0" r="1" gradientUnits="userSpaceOnUse" gradientTransform="translate(54.912 53.6641) rotate(90) scale(4.992)">
<stop stop-color="white"/>
<stop offset="1" stop-color="#E3A455"/>
</radialGradient>
<radialGradient id="paint9_radial_144_714" cx="0" cy="0" r="1" gradientUnits="userSpaceOnUse" gradientTransform="translate(258.336 257.088) rotate(90) scale(4.992)">
<stop stop-color="white"/>
<stop offset="1" stop-color="#E3A455"/>
</radialGradient>
<radialGradient id="paint10_radial_144_714" cx="0" cy="0" r="1" gradientUnits="userSpaceOnUse" gradientTransform="translate(156 156) scale(131.04)">
<stop offset="0.74907" stop-color="white"/>
<stop offset="0.797878" stop-color="#FCFCFD"/>
<stop offset="0.848165" stop-color="#F3F4F6"/>
<stop offset="0.898452" stop-color="#E9ECF0"/>
<stop offset="0.948739" stop-color="#B9C3CE"/>
<stop offset="1" stop-color="#899BAD"/>
</radialGradient>
<linearGradient id="paint11_linear_144_714" x1="185.952" y1="126.048" x2="126.048" y2="185.952" gradientUnits="userSpaceOnUse">
<stop stop-color="#E3A455"/>
<stop offset="1" stop-color="#3F1F0F"/>
</linearGradient>
<linearGradient id="paint12_linear_144_714" x1="141.024" y1="122.304" x2="170.976" y2="122.304" gradientUnits="userSpaceOnUse">
<stop stop-color="#E3A455"/>
<stop offset="0.501434" stop-color="#F6DBA6"/>
<stop offset="1" stop-color="#E3A455"/>
</linearGradient>
<linearGradient id="paint13_linear_144_714" x1="185.952" y1="126.048" x2="126.048" y2="185.952" gradientUnits="userSpaceOnUse">
<stop stop-color="#E3A455"/>
<stop offset="1" stop-color="#3F1F0F"/>
</linearGradient>
<radialGradient id="paint14_angular_144_714" cx="0" cy="0" r="1" gradientUnits="userSpaceOnUse" gradientTransform="translate(155.356 156.648) rotate(30) scale(24.96 24.2112)">
<stop offset="0.0729167" stop-color="#E3A455"/>
<stop offset="0.244792" stop-color="#F6DBA6"/>
<stop offset="0.434957" stop-color="#FFEBC4"/>
<stop offset="0.532623" stop-color="#F0BE79"/>
<stop offset="0.593311" stop-color="#8F653B"/>
<stop offset="0.627652" stop-color="#673D22"/>
<stop offset="0.708863" stop-color="#BA7F3B"/>
<stop offset="0.773898" stop-color="#EEBC70"/>
<stop offset="0.921875" stop-color="#3F1F0F"/>
</radialGradient>
<clipPath id="clip0_144_714">
<rect width="312" height="312" fill="white"/>
</clipPath>
<clipPath id="clip1_144_714">
<rect x="21.216" y="21.2158" width="269.568" height="269.568" rx="134.784" fill="white"/>
</clipPath>
</defs>
</svg>
