<svg width="48" height="48" viewBox="0 0 48 48" fill="none" xmlns="http://www.w3.org/2000/svg">
<path d="M13.354 35.713C11.3457 36.6245 9.20292 37.2045 7.00903 37.4305C6.86417 37.4456 6.71806 37.4182 6.58854 37.3516C6.45902 37.285 6.35169 37.1821 6.27965 37.0555C4.65403 34.1905 4.11965 30.6262 4.77965 26.7149C5.62153 21.6674 8.35903 16.6143 12.4897 12.4837C16.6203 8.35304 21.6772 5.61554 26.7209 4.77367C30.994 4.06304 34.8528 4.77367 37.8378 6.76117C37.9599 6.84139 38.056 6.95555 38.1141 7.08962C38.1723 7.22369 38.19 7.37183 38.1651 7.51583C38.1402 7.65983 38.0738 7.79343 37.974 7.90019C37.8742 8.00695 37.7454 8.08224 37.6034 8.11679C36.1982 8.45173 34.8283 8.92011 33.5122 9.51554C29.4303 11.3718 24.2122 15.3393 22.5397 23.7093C21.394 29.3868 18.3059 33.4255 13.354 35.713ZM41.7209 10.9462C41.649 10.8199 41.542 10.7173 41.4128 10.6507C41.2837 10.5841 41.138 10.5565 40.9934 10.5712C38.7986 10.7957 36.655 11.3758 34.6465 12.2887C29.6947 14.5762 26.6065 18.6149 25.4703 24.2887C23.7959 32.6587 18.5797 36.6262 14.4978 38.4824C13.1817 39.0779 11.8117 39.5462 10.4065 39.8812C10.2613 39.9139 10.1292 39.9891 10.0269 40.0972C9.92457 40.2053 9.85673 40.3414 9.832 40.4882C9.80727 40.6349 9.82677 40.7857 9.88801 40.9214C9.94925 41.057 10.0495 41.1714 10.1759 41.2499C12.4015 42.7349 15.1109 43.4999 18.1165 43.4999C19.1796 43.4968 20.2407 43.4065 21.289 43.2299C26.3347 42.388 31.3897 39.6505 35.5203 35.5199C39.6509 31.3893 42.3884 26.3324 43.2303 21.2887C43.8753 17.3774 43.3465 13.8112 41.7209 10.9462Z" fill="#007042"/>
</svg>
