<svg width="120" height="130" viewBox="0 0 120 130" fill="none" xmlns="http://www.w3.org/2000/svg">
<path d="M3.55664 115.427L21.1207 126.486H98.1469L115.711 115.427" fill="#FFD10D"/>
<path d="M3.55664 115.427L21.1207 126.486H98.1469L115.711 115.427" stroke="#FFE886" stroke-width="5.33333" stroke-linecap="round" stroke-linejoin="round"/>
<path d="M3.8457 115H116V9.5129C116 5.83061 113.015 2.8457 109.333 2.8457H10.5129C6.83061 2.8457 3.8457 5.83061 3.8457 9.5129V115Z" fill="#FFF5CF"/>
<path d="M52.137 36.0349C51.8653 35.0234 52.001 33.9456 52.5152 33.0332C53.0294 32.1207 53.881 31.4463 54.887 31.1549C57.0395 30.5399 59.2995 31.9049 59.887 34.0674L63.887 49.0124C63.9239 49.1469 63.9323 49.2877 63.9115 49.4257C63.8907 49.5637 63.8413 49.6958 63.7664 49.8135C63.6916 49.9312 63.5929 50.032 63.4767 50.1093C63.3606 50.1866 63.2295 50.2387 63.092 50.2624C61.9854 50.4518 60.9314 50.8736 59.9995 51.4999C59.8595 51.5924 59.7245 51.6899 59.5895 51.7924C59.507 51.6474 59.422 51.5024 59.3395 51.3624C58.485 50.064 57.268 49.0452 55.8395 48.4324C55.7022 48.3731 55.5802 48.2833 55.4827 48.1698C55.3852 48.0563 55.3149 47.9221 55.277 47.7774L52.137 36.0349ZM48.0995 71.1624C48.3653 71.2169 48.6358 71.2445 48.907 71.2449C49.8983 71.244 50.854 70.8751 51.5888 70.2096C52.3235 69.5441 52.785 68.6295 52.8837 67.6431C52.9824 66.6567 52.7113 65.6688 52.123 64.871C51.5347 64.0731 50.671 63.5221 49.6995 63.3249L44.802 62.3249C43.7671 62.1233 42.6944 62.3385 41.8173 62.9238C40.9402 63.509 40.3297 64.4168 40.1185 65.4498C39.9073 66.4828 40.1125 67.5575 40.6895 68.44C41.2664 69.3225 42.1685 69.9415 43.1995 70.1624L48.0995 71.1624ZM43.1995 57.9124L51.8595 59.6799C52.3774 59.7935 52.9127 59.803 53.4343 59.7079C53.9559 59.6128 54.4534 59.4149 54.8978 59.1258C55.3422 58.8367 55.7248 58.4621 56.0231 58.0238C56.3215 57.5856 56.5298 57.0923 56.6358 56.5729C56.7419 56.0534 56.7436 55.518 56.6409 54.9979C56.5382 54.4777 56.3331 53.9832 56.0375 53.543C55.742 53.1028 55.3618 52.7258 54.9193 52.4338C54.4767 52.1419 53.9805 51.9408 53.4595 51.8424L44.802 50.0824C43.7627 49.8699 42.6816 50.079 41.7964 50.6636C40.9113 51.2483 40.2946 52.1606 40.082 53.1999C39.8696 54.2392 40.0787 55.3203 40.6633 56.2055C41.2479 57.0906 42.1602 57.7073 43.1995 57.9199V57.9124ZM68.6995 50.8724L74.587 52.0749C74.8353 52.1251 75.0934 52.0792 75.3092 51.9465C75.525 51.8138 75.6824 51.6041 75.7495 51.3599L79.8545 36.0349C80.1247 35.0116 79.9783 33.9229 79.4474 33.0074C78.9165 32.0918 78.0443 31.424 77.022 31.1501C75.9997 30.8763 74.9106 31.0187 73.9931 31.5463C73.0756 32.0739 72.4046 32.9436 72.127 33.9649L67.927 49.6399C67.8916 49.7724 67.8838 49.9107 67.9041 50.0464C67.9244 50.182 67.9724 50.312 68.0451 50.4283C68.1178 50.5446 68.2136 50.6447 68.3266 50.7224C68.4396 50.8001 68.5674 50.8537 68.702 50.8799L68.6995 50.8724ZM78.0345 58.8074C77.6065 58.1036 77.0375 57.496 76.3633 57.0228C75.6891 56.5495 74.9244 56.2208 74.117 56.0574L65.217 54.2499C64.5327 54.1101 63.8236 54.1519 63.1605 54.3712C62.4973 54.5905 61.9031 54.9796 61.437 55.4999C61.1896 55.7642 60.9847 56.0652 60.8295 56.3924C60.4922 57.069 60.3536 57.8274 60.4297 58.5796C60.5058 59.3318 60.7935 60.047 61.2595 60.6424C61.873 61.4132 62.742 61.9391 63.7095 62.1249L67.5195 62.9024C68.037 63.0076 68.4924 63.3118 68.7879 63.7494C69.0834 64.187 69.1953 64.7231 69.0995 65.2424C68.7633 66.8578 69.0086 68.5401 69.792 69.9924C70.0326 70.4131 70.1162 70.9055 70.0278 71.3821C69.9395 71.8586 69.685 72.2884 69.3095 72.5949C69.0816 72.7736 68.8175 72.9007 68.5355 72.9673C68.2536 73.034 67.9606 73.0385 67.6767 72.9808C67.3928 72.923 67.1249 72.8042 66.8914 72.6327C66.6579 72.4612 66.4645 72.241 66.3245 71.9874C65.3914 70.2985 64.919 68.394 64.9545 66.4649L62.817 65.9999C61.7884 65.7927 60.8109 65.3838 59.9412 64.7968C59.0714 64.2098 58.3265 63.4563 57.7495 62.5799C57.6545 62.4374 57.567 62.2924 57.4845 62.1449C56.9557 62.548 56.3787 62.8839 55.767 63.1449C56.4926 64.3586 56.8836 65.7429 56.9 67.1569C56.9164 68.5709 56.5578 69.9639 55.8606 71.1942C55.1634 72.4244 54.1526 73.4479 52.9311 74.1603C51.7096 74.8728 50.3211 75.2487 48.907 75.2499C48.3671 75.2495 47.8286 75.1951 47.2995 75.0874L42.402 74.0874H42.387C42.2694 74.0595 42.1463 74.0648 42.0315 74.1028C41.9168 74.1408 41.8148 74.2099 41.737 74.3025C41.6592 74.3951 41.6087 74.5074 41.591 74.627C41.5734 74.7466 41.5893 74.8688 41.637 74.9799C43.1979 78.5516 45.7661 81.5909 49.0274 83.7258C52.2887 85.8606 56.1016 86.9984 59.9995 86.9999H60.152C71.0945 86.9174 79.9995 77.8449 79.9995 66.7749V65.9399C79.9988 63.4315 79.3208 60.9699 78.037 58.8149L78.0345 58.8074Z" fill="#FFD10D"/>
<path d="M3.55664 115.428H115.711V9.94064C115.711 6.25834 112.726 3.27344 109.044 3.27344H10.2238C6.54154 3.27344 3.55664 6.25834 3.55664 9.94064V115.428Z" stroke="#FFE886" stroke-width="5.33333" stroke-linecap="round" stroke-linejoin="round"/>
</svg>
